<svg width="25" height="22" viewBox="0 0 25 22" fill="none" xmlns="http://www.w3.org/2000/svg">
<path fill-rule="evenodd" clip-rule="evenodd" d="M4.24842 0.505273C5.08002 0.171534 5.97087 0 6.87008 0C7.76928 0 8.66013 0.171534 9.49173 0.505273C10.3234 0.839025 11.0801 1.32872 11.7179 1.94733L11.7201 1.94946L12.1502 2.37053L12.5802 1.94946L12.5824 1.94733C13.2202 1.32872 13.9769 0.839026 14.8086 0.505273C15.6402 0.171534 16.531 0 17.4302 0C18.3294 0 19.2203 0.171534 20.0519 0.505273C20.8833 0.838955 21.6399 1.32851 22.2776 1.94693C25.002 4.58051 25.1006 8.97757 21.7989 12.2284L21.7946 12.2326L12.6019 21.1174C12.3499 21.3609 11.9504 21.3609 11.6984 21.1174L2.50136 12.2284C-0.800288 8.97757 -0.701736 4.58045 2.02272 1.94689C2.66045 1.32849 3.41699 0.838946 4.24842 0.505273ZM6.87008 1.3C6.13593 1.3 5.40949 1.44009 4.7326 1.71174C4.05575 1.98338 3.44246 2.38092 2.92733 2.88052L2.92652 2.8813C0.77971 4.9562 0.579194 8.50952 3.41133 11.2999C3.41204 11.3006 3.41275 11.3013 3.41346 11.302L12.1502 19.746L20.8869 11.302C20.8876 11.3013 20.8883 11.3006 20.889 11.2999C23.7211 8.5095 23.5206 4.9562 21.3738 2.8813L21.373 2.88052C20.8579 2.38092 20.2446 1.98338 19.5677 1.71174C18.8908 1.44009 18.1644 1.3 17.4302 1.3C16.6961 1.3 15.9696 1.44009 15.2928 1.71174C14.6164 1.98319 14.0035 2.38037 13.4886 2.87949C13.4882 2.87983 13.4878 2.88017 13.4875 2.88052L12.6049 3.74465C12.3522 3.99204 11.9481 3.99204 11.6954 3.74465L10.8128 2.88052C10.8125 2.88017 10.8121 2.87983 10.8118 2.87949C10.2968 2.38037 9.68393 1.98319 9.00755 1.71174C8.33067 1.44009 7.60423 1.3 6.87008 1.3Z" fill="black"/>
<path d="M4.7326 1.71174C5.40949 1.44009 6.13593 1.3 6.87008 1.3C7.60423 1.3 8.33067 1.44009 9.00755 1.71174C9.68393 1.98319 10.2968 2.38037 10.8118 2.87949C10.8121 2.87983 10.8125 2.88017 10.8128 2.88052L11.6954 3.74465C11.9481 3.99204 12.3522 3.99204 12.6049 3.74465L13.4875 2.88052C13.4878 2.88017 13.4882 2.87983 13.4886 2.87949C14.0035 2.38037 14.6164 1.98319 15.2928 1.71174C15.9696 1.44009 16.6961 1.3 17.4302 1.3C18.1644 1.3 18.8908 1.44009 19.5677 1.71174C20.2446 1.98338 20.8579 2.38092 21.373 2.88052L21.3738 2.8813C23.5206 4.9562 23.7211 8.5095 20.889 11.2999L20.8869 11.302L12.1502 19.746L3.41346 11.302C3.41275 11.3013 3.41204 11.3006 3.41133 11.2999C0.579194 8.50952 0.77971 4.9562 2.92652 2.8813L2.92733 2.88052C3.44246 2.38092 4.05575 1.98338 4.7326 1.71174Z" fill="black"/>
</svg>
