<svg width="42" height="38" viewBox="0 0 42 38" fill="none" xmlns="http://www.w3.org/2000/svg">
<path d="M32.5997 34.6332L28.2559 36.9091C28.127 36.9762 27.982 37.0062 27.837 36.9956C27.6921 36.9851 27.5529 36.9344 27.4351 36.8494C27.3173 36.7643 27.2254 36.6482 27.1698 36.5139C27.1141 36.3797 27.0969 36.2326 27.1199 36.0892L27.9499 31.2674L24.4361 27.8536C24.3312 27.7522 24.2569 27.6233 24.2218 27.4818C24.1866 27.3402 24.192 27.1916 24.2372 27.0529C24.2825 26.9142 24.3658 26.7911 24.4777 26.6975C24.5896 26.6039 24.7256 26.5437 24.8701 26.5236L29.7258 25.8197L31.8977 21.4339C31.9627 21.3033 32.0628 21.1934 32.1868 21.1165C32.3108 21.0397 32.4538 20.999 32.5997 20.999C32.7455 20.999 32.8885 21.0397 33.0126 21.1165C33.1366 21.1934 33.2367 21.3033 33.3016 21.4339L35.4735 25.8197L40.3293 26.5236C40.4734 26.5444 40.6088 26.605 40.7202 26.6987C40.8316 26.7923 40.9145 26.9153 40.9597 27.0537C41.0049 27.1921 41.0104 27.3403 40.9757 27.4817C40.941 27.623 40.8674 27.7519 40.7633 27.8536L37.2494 31.2674L38.0774 36.0872C38.1022 36.2309 38.0863 36.3787 38.0313 36.5138C37.9764 36.6489 37.8847 36.7659 37.7666 36.8515C37.6485 36.9372 37.5088 36.9879 37.3633 36.9981C37.2178 37.0083 37.0723 36.9775 36.9434 36.9091L32.5997 34.6332Z" stroke="#FF6915" stroke-width="1.6" stroke-linecap="round" stroke-linejoin="round"/>
<path d="M9.40083 34.6332L5.05705 36.9091C4.92815 36.9762 4.78313 37.0062 4.63819 36.9956C4.49326 36.9851 4.35411 36.9344 4.23628 36.8494C4.11845 36.7643 4.02658 36.6482 3.97092 36.5139C3.91527 36.3797 3.89802 36.2326 3.92111 36.0892L4.75107 31.2674L1.23725 27.8536C1.13236 27.7522 1.0581 27.6233 1.02294 27.4818C0.987776 27.3402 0.993127 27.1916 1.03838 27.0529C1.08363 26.9142 1.16697 26.7911 1.27887 26.6975C1.39077 26.6039 1.52673 26.5437 1.67122 26.5236L6.52698 25.8197L8.69887 21.4339C8.76382 21.3033 8.86394 21.1934 8.98795 21.1165C9.11196 21.0397 9.25495 20.999 9.40083 20.999C9.54672 20.999 9.68971 21.0397 9.81372 21.1165C9.93773 21.1934 10.0378 21.3033 10.1028 21.4339L12.2747 25.8197L17.1304 26.5236C17.2745 26.5444 17.4099 26.605 17.5213 26.6987C17.6327 26.7923 17.7157 26.9153 17.7609 27.0537C17.806 27.1921 17.8116 27.3403 17.7768 27.4817C17.7421 27.623 17.6685 27.7519 17.5644 27.8536L14.0506 31.2674L14.8786 36.0872C14.9034 36.2309 14.8875 36.3787 14.8325 36.5138C14.7776 36.6489 14.6859 36.7659 14.5678 36.8515C14.4497 36.9372 14.3099 36.9879 14.1644 36.9981C14.0189 37.0083 13.8735 36.9775 13.7446 36.9091L9.40083 34.6332Z" stroke="#FF6915" stroke-width="1.6" stroke-linecap="round" stroke-linejoin="round"/>
<path d="M21.0003 14.6342L16.6565 16.9101C16.5276 16.9772 16.3825 17.0072 16.2376 16.9966C16.0927 16.9861 15.9535 16.9354 15.8357 16.8504C15.7179 16.7653 15.626 16.6492 15.5703 16.515C15.5147 16.3807 15.4974 16.2336 15.5205 16.0902L16.3505 11.2684L12.8367 7.85458C12.7318 7.75319 12.6575 7.62436 12.6224 7.48278C12.5872 7.34121 12.5925 7.1926 12.6378 7.05392C12.6831 6.91524 12.7664 6.79207 12.8783 6.69849C12.9902 6.6049 13.1261 6.54466 13.2706 6.52465L18.1264 5.82068L20.2983 1.43491C20.3632 1.30428 20.4634 1.19437 20.5874 1.11754C20.7114 1.04071 20.8544 1 21.0003 1C21.1461 1 21.2891 1.04071 21.4131 1.11754C21.5371 1.19437 21.6373 1.30428 21.7022 1.43491L23.8741 5.82068L28.7299 6.52465C28.8739 6.54538 29.0093 6.606 29.1207 6.69968C29.2322 6.79335 29.3151 6.91633 29.3603 7.05471C29.4054 7.19308 29.411 7.34133 29.3763 7.48269C29.3415 7.62405 29.268 7.75287 29.1638 7.85458L25.65 11.2684L26.478 16.0882C26.5028 16.2319 26.4869 16.3797 26.4319 16.5148C26.377 16.6499 26.2853 16.7669 26.1672 16.8525C26.0491 16.9382 25.9093 16.9889 25.7638 16.9991C25.6183 17.0093 25.4729 16.9785 25.344 16.9101L21.0003 14.6342Z" stroke="#FF6915" stroke-width="1.6" stroke-linecap="round" stroke-linejoin="round"/>
</svg>
