<svg width="36" height="38" viewBox="0 0 36 38" fill="none" xmlns="http://www.w3.org/2000/svg">
<path d="M4.78947 27.5263C5.7945 27.5263 6.75837 27.9256 7.46904 28.6362C8.1797 29.3469 8.57895 30.3108 8.57895 31.3158C8.57895 32.3208 8.1797 33.2847 7.46904 33.9954C6.75837 34.706 5.7945 35.1053 4.78947 35.1053C3.78444 35.1053 2.82058 34.706 2.10991 33.9954C1.39925 33.2847 1 32.3208 1 31.3158C1 30.3108 1.39925 29.3469 2.10991 28.6362C2.82058 27.9256 3.78444 27.5263 4.78947 27.5263ZM4.78947 27.5263H12.3684M4.78947 27.5263V1H1M4.78947 4.78947L31.3158 6.68421L29.9573 16.1882M15.2105 19.9474H4.78947M27.5263 37L33.8737 30.7777C34.2629 30.4 34.5725 29.9481 34.7843 29.4488C34.996 28.9494 35.1055 28.4127 35.1064 27.8703C35.1073 27.3279 34.9995 26.7909 34.7894 26.2908C34.5793 25.7908 34.2712 25.3379 33.8832 24.9589C33.0914 24.1846 32.0286 23.7501 30.9212 23.748C29.8137 23.7459 28.7492 24.1763 27.9545 24.9476L27.5301 25.3644L27.1076 24.9476C26.3159 24.1738 25.2535 23.7397 24.1465 23.7376C23.0395 23.7354 21.9755 24.1655 21.1808 24.9362C20.7915 25.3138 20.4817 25.7656 20.2698 26.2648C20.0579 26.7641 19.9482 27.3008 19.9472 27.8432C19.9461 28.3856 20.0537 28.9227 20.2636 29.4228C20.4736 29.9229 20.7816 30.3758 21.1695 30.7549L27.5263 37Z" stroke="#FF6915" stroke-width="1.6" stroke-linecap="round" stroke-linejoin="round"/>
</svg>
